<?xml version="1.0" encoding="UTF-8"?>
<svg id="Layer_2" data-name="Layer 2" xmlns="http://www.w3.org/2000/svg" viewBox="0 0 321.85 90.5">
  <defs>
    <style>
      .cls-1 {
        fill: #fff;
      }

      .cls-1, .cls-2 {
        stroke-width: 0px;
      }

      .cls-2 {
        fill: #5b2eee;
      }
    </style>
  </defs>
  <g id="Dark_-_normal_size" data-name="Dark - normal size">
    <g>
      <polygon class="cls-1" points="105.85 68.53 134.52 68.53 134.52 26.73 105.85 26.73 105.85 58.8 111.98 58.8 111.98 33.13 128.6 33.13 128.6 62.1 105.85 62.1 105.85 68.53"/>
      <rect class="cls-1" x="144.24" y="27.16" width="29.33" height="5.93"/>
      <rect class="cls-1" x="144.24" y="44.96" width="29.33" height="5.93"/>
      <rect class="cls-1" x="144.24" y="62.76" width="29.33" height="5.93"/>
      <path class="cls-1" d="m182.12,26.72v41.97h6.43v-17.87h22.26v-24.1h-28.69Zm22.74,18.24h-16.62v-11.87h16.62v11.87Z"/>
      <polygon class="cls-1" points="248.62 26.7 220.01 26.7 220.01 50.82 242.31 50.82 242.31 62.1 219.52 62.1 219.52 68.7 248.62 68.7 248.62 44.42 226.38 44.42 226.38 33.13 248.85 33.13 248.85 26.7 248.62 26.7"/>
      <path class="cls-1" d="m258.38,26.72v41.98h6.43v-17.87h22.26v-24.1h-28.69Zm22.74,18.24h-16.62v-11.87h16.62v11.87Z"/>
      <polygon class="cls-1" points="306.5 39.57 298.23 26.72 291.42 26.72 302.92 44.96 302.92 68.7 310.07 68.7 310.07 44.96 321.85 26.72 314.74 26.72 306.5 39.57"/>
    </g>
    <g>
      <path class="cls-2" d="m81.79,42.79h-6.16c.01-.1.01-.2.01-.3v-1.54h6.12c-.6-11.98-8.09-22.52-19.2-27.03-11.11-4.5-23.83-2.15-32.6,6.02l-1.09,1.09h0c-9.14,9.42-11.31,23.6-5.41,35.33h8.6v1.54h-7.76c6.97,12.08,21.19,17.97,34.67,14.36,13.37-3.58,22.7-15.64,22.83-29.47Zm7.57-3.64c1.28,14.73-5.98,28.89-18.68,36.45-12.71,7.55-28.61,7.18-40.94-.97-4.91,4.9-9.82,9.81-14.72,14.71-1.2,1.21-3.16,1.21-4.36,0-2.18-2.18-4.36-4.35-6.54-6.53-1.2-1.21-1.2-3.16,0-4.36l14.72-14.72c-1.23-1.86-2.28-3.79-3.17-5.83H.25v-1.54h14.79c-5.43-14.07-2.16-30,8.37-40.79l1.09-1.09h.01C35.25,4.34,50.86,1.22,64.67,6.48c13.82,5.25,23.41,17.95,24.69,32.67Z"/>
      <path class="cls-2" d="m75.63,42.79c-.15,3.26-2.85,5.86-6.16,5.86s-6.16-2.76-6.16-6.16v-1.54h.19c.71-2.73,3.16-4.63,5.97-4.63s5.27,1.9,5.97,4.63h.2v1.54c0,.1,0,.2-.01.3Zm-3.96-.3c0-1.22-.98-2.2-2.2-2.2s-2.2.98-2.2,2.2.99,2.19,2.2,2.19,2.2-.98,2.2-2.19Z"/>
      <path class="cls-2" d="m63.31,40.95v1.54h-6.17c0,2.21-1.18,4.25-3.1,5.35s-4.29,1.08-6.19-.04l-5.29,5.29-1.09-1.09,5.15-5.15c-2.28-2.28-2.42-5.94-.31-8.38l-3.63-3.63,1.08-1.09,3.69,3.68c1.66-1.15,3.77-1.42,5.67-.72,1.89.7,3.32,2.28,3.83,4.24h6.36Zm-9.56,1.54c0-1.53-1.24-2.77-2.77-2.77s-2.77,1.24-2.77,2.77,1.24,2.77,2.77,2.77,2.77-1.24,2.77-2.77Z"/>
      <path class="cls-2" d="m42.56,53.09c1.43,1.43,2.06,3.46,1.71,5.45-.36,1.99-1.67,3.67-3.5,4.51-1.84.84-3.97.73-5.71-.3s-2.86-2.84-3.01-4.85v-1.54h.08c.36-1.99,1.66-3.67,3.5-4.52,1.83-.84,3.96-.73,5.7.3l.14-.14,1.09,1.09Zm-1.2,4.36c0-1.75-1.42-3.16-3.16-3.16s-3.16,1.41-3.16,3.16,1.42,3.15,3.16,3.15,3.16-1.41,3.16-3.15Z"/>
      <path class="cls-2" d="m42.68,26.13c1.99,1.98,2.38,5.06.95,7.49l.13.13-1.08,1.09c-2.4,2.41-6.31,2.41-8.71,0-2.41-2.4-2.41-6.31,0-8.71l-5.1-5.1,1.09-1.09,5.23,5.23c2.43-1.42,5.51-1.03,7.49.96Zm-1.16,4.35c0-1.76-1.43-3.19-3.2-3.19s-3.19,1.43-3.19,3.19,1.43,3.2,3.19,3.2,3.2-1.43,3.2-3.2Z"/>
      <path class="cls-2" d="m24.5,14.48l-1.09,1.09-4.8-4.8c-1.48,1.48-3.61,2.11-5.66,1.67-2.05-.45-3.73-1.9-4.47-3.86H.25v-1.54h7.87c-.2-1.96.55-3.91,2.02-5.23C11.62.5,13.63-.03,15.57.39c1.93.42,3.54,1.74,4.33,3.56.79,1.81.67,3.89-.34,5.59l4.94,4.94Zm-7.13-8.07c0-1.72-1.4-3.12-3.12-3.12s-3.12,1.4-3.12,3.12,1.4,3.12,3.12,3.12,3.12-1.39,3.12-3.12Z"/>
    </g>
  </g>
</svg>