<?xml version="1.0" standalone="no"?><!DOCTYPE svg PUBLIC "-//W3C//DTD SVG 1.1//EN" "http://www.w3.org/Graphics/SVG/1.1/DTD/svg11.dtd"><svg t="1749291100401" class="icon" viewBox="0 0 1024 1024" version="1.1" xmlns="http://www.w3.org/2000/svg" p-id="16672" xmlns:xlink="http://www.w3.org/1999/xlink" width="200" height="200"><path d="M980.8 454.4c0-33.6 6.4-52.8 6.4-86.4 0-56-20.8-73.6-64-73.6h-33.6v40h9.6c20.8 0 27.2 6.4 27.2 36.8 0 24-3.2 52.8-3.2 83.2 0 40 12.8 56 36.8 57.6-24 6.4-36.8 20.8-36.8 57.6 0 30.4 3.2 56 3.2 83.2 0 27.2-6.4 36.8-27.2 36.8h-9.6v40h33.6c43.2 0 64-19.2 64-73.6 0-36.8-6.4-56-6.4-86.4 0-19.2 12.8-36.8 43.2-36.8v-43.2c-33.6 1.6-43.2-17.6-43.2-35.2z m-168 51.2c-24-9.6-49.6-16-49.6-33.6 0-12.8 9.6-20.8 27.2-20.8s36.8 6.4 56 20.8l33.6-43.2c-20.8-16-49.6-33.6-89.6-33.6-57.6 0-94.4 33.6-94.4 80 0 40 36.8 60.8 67.2 73.6 24 9.6 52.8 19.2 52.8 36.8 0 12.8-9.6 20.8-33.6 20.8-20.8 0-43.2-9.6-64-24l-33.6 49.6c24 20.8 64 36.8 94.4 36.8 67.2 0 104-36.8 104-83.2-3.2-52.8-40-70.4-70.4-80z m-577.6 96c-6.4 0-12.8-6.4-12.8-20.8V294.4H102.4c-46.4 0-64 19.2-64 73.6 0 36.8 6.4 56 6.4 86.4 0 19.2-12.8 36.8-43.2 36.8v43.2c33.6 0 43.2 19.2 43.2 36.8 0 30.4-6.4 49.6-6.4 86.4 0 56 20.8 73.6 64 73.6h33.6v-40H128c-20.8 0-27.2-9.6-27.2-36.8 0-27.2 3.2-52.8 3.2-83.2 0-40-12.8-56-36.8-57.6v-3.2c24-6.4 36.8-20.8 36.8-57.6 0-30.4-3.2-56-3.2-83.2 0-27.2 6.4-36.8 27.2-36.8h20.8V576c0 52.8 19.2 86.4 67.2 86.4 16 0 27.2-3.2 36.8-6.4l-9.6-56c-1.6 1.6-4.8 1.6-8 1.6z m371.2-96c-24-9.6-49.6-16-49.6-33.6 0-12.8 9.6-20.8 27.2-20.8s36.8 6.4 56 20.8l33.6-43.2c-20.8-16-49.6-33.6-89.6-33.6-57.6 0-94.4 33.6-94.4 80 0 40 36.8 60.8 67.2 73.6 24 9.6 52.8 19.2 52.8 36.8 0 12.8-9.6 20.8-33.6 20.8-20.8 0-43.2-9.6-64-24l-33.6 49.6c24 20.8 64 36.8 94.4 36.8 67.2 0 104-36.8 104-83.2 0-52.8-36.8-70.4-70.4-80z m-248-110.4c-60.8 0-120 52.8-120 132.8 0 83.2 56 132.8 126.4 132.8 30.4 0 64-12.8 89.6-27.2l-24-43.2c-19.2 12.8-36.8 16-56 16-33.6 0-57.6-16-67.2-56h153.6c0-6.4 3.2-19.2 3.2-30.4 1.6-72-35.2-124.8-105.6-124.8z m-46.4 104c6.4-33.6 24-49.6 49.6-49.6 30.4 0 43.2 20.8 43.2 49.6h-92.8z" fill="#1296db" p-id="16673"></path></svg>